<svg width="532" height="118" viewBox="0 0 532 118" fill="none" xmlns="http://www.w3.org/2000/svg">
<path d="M87.5625 76.25H81.8125C81.8125 78.0833 81.625 79.9167 81.25 81.75C80.9167 83.5417 80.3542 85.3333 79.5625 87.125L86.25 90.125L84.25 94.3125L77.5625 91.3125C76.3542 93.2708 74.9583 95.0625 73.375 96.6875C71.7917 98.3125 70.0417 99.75 68.125 101L71.3125 108.625L66.3125 111.562L62.8125 103.75C60.1042 104.833 57.4375 105.542 54.8125 105.875C52.1875 106.208 49.6458 106.167 47.1875 105.75L45.4375 114.75L39.875 113.25L42.125 105.125C40.2917 104.708 38.5208 104.229 36.8125 103.688C35.1458 103.104 33.5625 102.479 32.0625 101.812L27.75 108.938L23.25 105.438L27.0625 98.9375C25.1875 97.6458 23.4375 96.1667 21.8125 94.5C20.1875 92.8333 18.6458 90.9583 17.1875 88.875L9.6875 92.8125L7.125 88.5625L14.5625 84.25C12.9792 81.0833 11.7708 77.75 10.9375 74.25C10.1042 70.7083 9.64583 66.9583 9.5625 63L1.4375 64.3125L0 58.75L9.6875 57.5C9.97917 54 10.5 50.6042 11.25 47.3125C12.0417 43.9792 13.0833 40.7292 14.375 37.5625L6.6875 32.375L10.1875 27.5L16.875 32.25C18.125 30.1667 19.375 28.2708 20.625 26.5625C21.875 24.8125 23.1458 23.2083 24.4375 21.75L18.8125 14.125L22.9375 10.9375L28.375 17.75C30.4167 16 32.4792 14.4583 34.5625 13.125C36.6458 11.7917 38.7292 10.7083 40.8125 9.875L39.0625 2.4375L45 1.3125L45.9375 8.3125C47.2708 8.02083 48.625 7.79167 50 7.625C51.4167 7.45833 52.8333 7.375 54.25 7.375C55.7083 7.375 57.125 7.47917 58.5 7.6875C59.9167 7.89583 61.3125 8.20833 62.6875 8.625L64.4375 1.3125L69.375 2.5625L66.9375 10.75C68.6042 11.7917 70.1667 13.0625 71.625 14.5625C73.0833 16.0208 74.4167 17.7083 75.625 19.625L81.1875 15.8125L84.375 20.8125L78.1875 24.4375C78.8125 25.8958 79.3542 27.2292 79.8125 28.4375C80.2708 29.6458 80.625 30.7083 80.875 31.625L75 34.0625C72.125 29.2292 68.7917 25.6042 65 23.1875C61.2083 20.7292 56.9167 19.5 52.125 19.5C48.0417 19.5 44.2708 20.375 40.8125 22.125C37.3542 23.8333 34.25 26.4375 31.5 29.9375C28.9167 33.1875 27 36.6875 25.75 40.4375C24.5 44.1875 23.875 48.1458 23.875 52.3125C23.875 56.9375 24.4583 61.1667 25.625 65C26.7917 68.8333 28.5625 72.25 30.9375 75.25C33.5625 78.5833 36.625 81.0833 40.125 82.75C43.6667 84.375 47.6667 85.1875 52.125 85.1875C58.125 85.1875 63.0833 83.3958 67 79.8125C70.9167 76.2292 72.875 71.4792 72.875 65.5625L78.5 63.3125C79.2083 64.5625 79.7917 65.875 80.25 67.25C80.7083 68.625 81.0833 70.1042 81.375 71.6875H87.5625V76.25ZM180.098 58.5625C180.098 65.1458 179.16 71.3333 177.285 77.125C175.41 82.9167 172.556 88.3333 168.723 93.375C164.556 98.875 159.848 103 154.598 105.75C149.389 108.5 143.577 109.875 137.16 109.875C130.827 109.875 125.035 108.5 119.785 105.75C114.577 103 109.889 98.875 105.723 93.375C101.931 88.375 99.0975 82.9583 97.2225 77.125C95.3475 71.2917 94.41 65.1042 94.41 58.5625C94.41 52.0208 95.3267 45.8958 97.16 40.1875C99.035 34.4792 101.806 29.2083 105.473 24.375C109.514 19.0833 114.139 15.125 119.348 12.5C124.556 9.83333 130.348 8.5 136.723 8.5C143.098 8.5 148.91 9.83333 154.16 12.5C159.452 15.125 164.202 19.0625 168.41 24.3125C172.285 29.1875 175.202 34.4792 177.16 40.1875C179.118 45.8958 180.098 52.0208 180.098 58.5625ZM166.598 64.4375C166.598 63.8958 166.598 63.3542 166.598 62.8125C166.598 62.2292 166.577 61.625 166.535 61L156.785 61.75L155.66 56.8125L165.66 55.25C165.118 52.5 164.348 49.9375 163.348 47.5625C162.348 45.1458 161.118 42.9167 159.66 40.875L151.348 50.8125L147.723 47.875L155.035 35.75C152.618 33.6667 149.952 32.125 147.035 31.125C144.118 30.125 140.889 29.6458 137.348 29.6875L141.16 44.6875L136.723 46.25L131.41 31C128.285 32.125 125.431 33.7917 122.848 36C120.264 38.1667 117.91 40.8542 115.785 44.0625L125.973 55.375L122.285 59.6875L112.723 49.75C111.389 52.875 110.41 55.8958 109.785 58.8125C109.16 61.7292 108.889 64.5208 108.973 67.1875L109.035 69.5625L120.098 70.3125V75.8125L109.535 75.1875C109.827 77.2292 110.306 79.2917 110.973 81.375C111.681 83.4583 112.556 85.5417 113.598 87.625L122.16 79.9375L125.66 83.125L116.91 92.375C118.702 94.6667 120.66 96.5625 122.785 98.0625C124.952 99.5625 127.306 100.708 129.848 101.5L131.285 89.1875L135.723 89.8125L135.41 102.438H136.098C138.723 102.438 141.285 102.042 143.785 101.25C146.327 100.417 148.806 99.125 151.223 97.375L144.035 83.4375L148.285 80.9375L155.66 93.3125C157.202 91.6042 158.556 89.8542 159.723 88.0625C160.889 86.2708 161.868 84.4167 162.66 82.5L152.285 73.5L155.035 70.75L164.723 76.4375C165.348 74.6875 165.806 72.8125 166.098 70.8125C166.431 68.8125 166.598 66.6875 166.598 64.4375ZM267.883 53.875C267.883 62.9167 265.737 71.0625 261.445 78.3125C257.195 85.5625 250.758 91.9167 242.133 97.375C235.299 101.708 227.674 105.25 219.258 108C210.841 110.75 201.591 112.688 191.508 113.812L198.32 0.5C209.278 1.20833 218.778 2.5 226.82 4.375C234.903 6.25 241.487 8.6875 246.57 11.6875C253.695 15.8958 259.028 21.5208 262.57 28.5625C266.112 35.6042 267.883 44.0417 267.883 53.875ZM248.57 54V47.75L239.633 47.4375L238.82 39.25L247.445 38.9375L247.133 33.1875L237.883 32.25L235.82 14.125C232.695 12.625 229.299 11.3333 225.633 10.25C221.966 9.16667 218.008 8.3125 213.758 7.6875L215.07 102.75C219.195 101.875 223.216 100.667 227.133 99.125C231.049 97.5833 234.841 95.75 238.508 93.625L239.133 70L247.445 69.5625L248.258 63.1875L239.32 62.875L239.445 54.625L248.57 54ZM229.258 53.8125C229.258 57.3542 229.133 60.7292 228.883 63.9375C228.674 67.1458 228.341 70.1875 227.883 73.0625L224.695 71.375C224.778 70.0417 224.82 68.6875 224.82 67.3125C224.862 65.9375 224.883 64.5208 224.883 63.0625C224.883 58.3542 224.653 53.7917 224.195 49.375C223.737 44.9583 223.049 40.7292 222.133 36.6875H228.32C228.653 39.4792 228.883 42.3125 229.008 45.1875C229.174 48.0208 229.258 50.8958 229.258 53.8125ZM324.98 27.5L323.105 44.0625L308.543 40.5L313.418 30.3125L324.98 27.5ZM346.543 31.625L336.543 34.5C336.209 30.0833 335.251 26.4375 333.668 23.5625C332.126 20.6458 329.938 18.4792 327.105 17.0625C325.563 16.3125 323.063 15.625 319.605 15C316.188 14.3333 311.834 13.7917 306.543 13.375L301.73 54.625L333.668 52.9375L325.668 70.875L300.168 65.4375L294.543 107.25L317.98 107.562L326.168 95.5625L339.23 94.8125L339.543 114.75L279.293 111.375L282.793 46.125L291.168 46.5625L292.543 41.1875L282.918 41.0625L283.418 33.5L292.543 34.1875L293.48 27.5H283.73L284.043 20.125L293.168 20.8125L294.418 15.0625L284.355 14.5625L284.98 3.1875C289.105 3.52083 293.251 3.85417 297.418 4.1875C301.584 4.47917 305.751 4.75 309.918 5C314.876 5.58333 319.293 6.4375 323.168 7.5625C327.043 8.64583 330.355 10.0208 333.105 11.6875C336.73 13.8542 339.647 16.6042 341.855 19.9375C344.105 23.2708 345.668 27.1667 346.543 31.625ZM397.39 86.3125L382.89 88.875L381.703 82.8125L377.89 83.25L378.828 89.5L374.89 90.25L373.453 84.125L369.828 84.4375L370.89 91L366.765 91.625L365.765 85.0625L361.453 85.6875L362.39 92.375L357.64 93.125L354.015 71.5L397.078 75.1875L397.39 86.3125ZM527.335 55.5625C527.335 57.6875 526.564 59.5208 525.022 61.0625C523.522 62.5625 521.71 63.3125 519.585 63.3125C517.377 63.3125 515.502 62.5625 513.96 61.0625C512.46 59.5208 511.71 57.6875 511.71 55.5625C511.71 53.4792 512.481 51.6875 514.022 50.1875C515.606 48.6458 517.46 47.875 519.585 47.875C521.668 47.875 523.481 48.6458 525.022 50.1875C526.564 51.6875 527.335 53.4792 527.335 55.5625ZM531.335 108.938L523.21 117.625L484.585 72.25C481.335 78.625 478.585 83.7917 476.335 87.75C474.085 91.6667 472.377 94.4583 471.21 96.125C467.793 101 464.314 104.646 460.772 107.062C457.231 109.479 453.647 110.688 450.022 110.688C446.272 110.688 442.543 109.375 438.835 106.75C435.168 104.083 431.543 100.104 427.96 94.8125L431.21 91.4375C433.335 94.4375 435.502 96.7083 437.71 98.25C439.96 99.75 442.252 100.5 444.585 100.5C447.543 100.5 450.627 99.2708 453.835 96.8125C457.043 94.3125 460.397 90.5833 463.897 85.625C464.939 84.1667 466.543 81.5833 468.71 77.875C470.877 74.125 473.627 69.2708 476.96 63.3125L464.335 48.375L469.835 43.6875L465.585 38.625L460.085 43.375L455.085 37.6875L461.147 32.875L457.022 27.9375L451.272 33L447.147 28.25L453.522 23.3125L450.335 18.375L443.335 24L438.96 18.875L461.147 3.1875L487.46 42.125L507.897 0.5L518.585 8.625L494.335 53.25L531.335 108.938ZM456.022 65.5625C456.022 67.6875 455.252 69.5208 453.71 71.0625C452.168 72.6042 450.335 73.375 448.21 73.375C446.085 73.375 444.252 72.6042 442.71 71.0625C441.21 69.5208 440.46 67.6875 440.46 65.5625C440.46 63.4792 441.231 61.6667 442.772 60.125C444.356 58.5833 446.168 57.8125 448.21 57.8125C450.293 57.8125 452.106 58.5833 453.647 60.125C455.231 61.6667 456.022 63.4792 456.022 65.5625Z" fill="white"/>
</svg>
